<svg xmlns="http://www.w3.org/2000/svg" viewBox="0 0 40 40" fill="none">
  <circle cx="20" cy="20" r="18" fill="#121212"/>
  <circle cx="20" cy="20" r="15" fill="none" stroke="#6bb7a8" stroke-width="1.5" opacity="0.5"/>
  <path d="M20 8c-6.627 0-12 5.373-12 12s5.373 12 12 12 12-5.373 12-12S26.627 8 20 8z" fill="none" stroke="#d65f4d" stroke-width="1" stroke-dasharray="4 3" opacity="0.4"/>
  <circle cx="20" cy="16" r="5.5" fill="#f7f3eb"/>
  <path d="M12 30c0-4.418 3.582-8 8-8s8 3.582 8 8" fill="#f7f3eb"/>
  <path d="M27 14.5c1.5-1 3.5-0.5 4.5 1s0.5 3.5-1 4.5" stroke="#6bb7a8" stroke-width="1.5" stroke-linecap="round"/>
  <path d="M29 13c1.2-0.8 2.8-0.4 3.6 0.8" stroke="#6bb7a8" stroke-width="1.2" stroke-linecap="round" opacity="0.5"/>
  <circle cx="20" cy="20" r="19" fill="none" stroke="#d65f4d" stroke-width="0.5" opacity="0.25"/>
</svg>
